<svg xmlns="http://www.w3.org/2000/svg" xmlns:xlink="http://www.w3.org/1999/xlink" width="500" zoomAndPan="magnify" viewBox="0 0 375 374.999991" height="500" preserveAspectRatio="xMidYMid meet" version="1.0"><defs><g/><clipPath id="6dbe74d06e"><path d="M 131.25 131.25 L 243.75 131.25 L 243.75 243.75 L 131.25 243.75 Z M 131.25 131.25 " clip-rule="nonzero"/></clipPath><clipPath id="6d99e75f99"><path d="M 187.5 131.25 C 156.433594 131.25 131.25 156.433594 131.25 187.5 C 131.25 218.566406 156.433594 243.75 187.5 243.75 C 218.566406 243.75 243.75 218.566406 243.75 187.5 C 243.75 156.433594 218.566406 131.25 187.5 131.25 Z M 187.5 131.25 " clip-rule="nonzero"/></clipPath><clipPath id="011055ad01"><path d="M 89.175781 92.925781 L 278.175781 92.925781 L 278.175781 281.925781 L 89.175781 281.925781 Z M 89.175781 92.925781 " clip-rule="nonzero"/></clipPath><clipPath id="567cc54ac7"><path d="M 146.476562 202.753906 L 156.023438 202.753906 L 156.023438 212.296875 L 146.476562 212.296875 Z M 146.476562 202.753906 " clip-rule="nonzero"/></clipPath><clipPath id="067f698ced"><path d="M 151.25 202.753906 C 148.613281 202.753906 146.476562 204.890625 146.476562 207.527344 C 146.476562 210.160156 148.613281 212.296875 151.25 212.296875 C 153.886719 212.296875 156.023438 210.160156 156.023438 207.527344 C 156.023438 204.890625 153.886719 202.753906 151.25 202.753906 Z M 151.25 202.753906 " clip-rule="nonzero"/></clipPath></defs><g clip-path="url(#6dbe74d06e)"><g clip-path="url(#6d99e75f99)"><path fill="#1f1f1f" d="M 131.25 131.25 L 243.75 131.25 L 243.75 243.75 L 131.25 243.75 Z M 131.25 131.25 " fill-opacity="1" fill-rule="nonzero"/></g></g><g clip-path="url(#011055ad01)"><path fill="#1f1f1f" d="M 183.746094 282.066406 C 131.734375 282.066406 89.175781 239.511719 89.175781 187.496094 C 89.175781 135.484375 131.734375 92.925781 183.746094 92.925781 C 235.761719 92.925781 278.316406 135.484375 278.316406 187.496094 C 278.316406 239.511719 235.761719 282.066406 183.746094 282.066406 Z M 183.746094 282.066406 " fill-opacity="1" fill-rule="nonzero"/></g><path stroke-linecap="butt" transform="matrix(0.75, -0.000000000000000186, 0.000000000000000186, 0.75, 149.709897, 109.296175)" fill="none" stroke-linejoin="miter" d="M 0.00138724 2.000933 L 98.209727 2.000933 " stroke="#ffffff" stroke-width="4" stroke-opacity="1" stroke-miterlimit="4"/><path stroke-linecap="butt" transform="matrix(0, -0.75, 0.75, 0, 220.215472, 209.175807)" fill="none" stroke-linejoin="miter" d="M 0.0000344188 1.999162 L 130.171918 1.999162 " stroke="#ffffff" stroke-width="4" stroke-opacity="1" stroke-miterlimit="4"/><path stroke-linecap="butt" transform="matrix(0.75, 0, 0, 0.75, 149.709897, 206.026422)" fill="none" stroke-linejoin="miter" d="M 0.00138724 2.00123 L 98.209727 2.00123 " stroke="#ffffff" stroke-width="4" stroke-opacity="1" stroke-miterlimit="4"/><g fill="#d6cc77" fill-opacity="1"><g transform="translate(143.044685, 178.352479)"><g><path d="M 6.84375 0 L 6.84375 -68.359375 L 10.625 -68.359375 L 10.625 -20.890625 L 11.140625 -20.890625 L 36.59375 -46.859375 L 41.15625 -46.859375 L 21.84375 -27.296875 L 44.140625 0 L 39.921875 0 L 19.65625 -24.390625 L 19.21875 -24.390625 L 10.625 -15.625 L 10.625 0 Z M 6.84375 0 "/></g></g></g><g clip-path="url(#567cc54ac7)"><g clip-path="url(#067f698ced)"><path fill="#ffffff" d="M 146.476562 202.753906 L 156.023438 202.753906 L 156.023438 212.296875 L 146.476562 212.296875 Z M 146.476562 202.753906 " fill-opacity="1" fill-rule="nonzero"/></g></g><g fill="#d6cc77" fill-opacity="1"><g transform="translate(176.847958, 192.624158)"><g><path d="M 21.765625 1.046875 C 18.078125 1.046875 14.640625 0.460938 11.453125 -0.703125 C 8.265625 -1.867188 5.5 -3.300781 3.15625 -5 L 4.65625 -8.078125 C 6.695312 -6.429688 9.179688 -5.035156 12.109375 -3.890625 C 15.035156 -2.753906 18.195312 -2.1875 21.59375 -2.1875 C 25.332031 -2.1875 28.285156 -3.019531 30.453125 -4.6875 C 32.617188 -6.363281 33.703125 -8.515625 33.703125 -11.140625 C 33.703125 -13.890625 32.789062 -16.15625 30.96875 -17.9375 C 29.15625 -19.726562 25.675781 -21.148438 20.53125 -22.203125 C 14.914062 -23.367188 10.9375 -25.109375 8.59375 -27.421875 C 6.257812 -29.734375 5.09375 -32.585938 5.09375 -35.984375 C 5.09375 -38.140625 5.78125 -40.109375 7.15625 -41.890625 C 8.53125 -43.679688 10.441406 -45.117188 12.890625 -46.203125 C 15.347656 -47.285156 18.21875 -47.828125 21.5 -47.828125 C 24.25 -47.828125 26.691406 -47.59375 28.828125 -47.125 C 30.960938 -46.65625 32.96875 -46.066406 34.84375 -45.359375 L 34.84375 -41.859375 C 33.082031 -42.617188 31.101562 -43.257812 28.90625 -43.78125 C 26.71875 -44.3125 24.21875 -44.578125 21.40625 -44.578125 C 17.664062 -44.578125 14.640625 -43.726562 12.328125 -42.03125 C 10.015625 -40.332031 8.859375 -38.316406 8.859375 -35.984375 C 8.859375 -34.398438 9.222656 -32.945312 9.953125 -31.625 C 10.691406 -30.3125 11.992188 -29.144531 13.859375 -28.125 C 15.734375 -27.101562 18.425781 -26.210938 21.9375 -25.453125 C 27.664062 -24.222656 31.6875 -22.453125 34 -20.140625 C 36.3125 -17.828125 37.46875 -14.859375 37.46875 -11.234375 C 37.46875 -7.722656 36.046875 -4.796875 33.203125 -2.453125 C 30.367188 -0.117188 26.554688 1.046875 21.765625 1.046875 Z M 21.765625 1.046875 "/></g></g></g><g fill="#d6cc77" fill-opacity="1"><g transform="translate(113.482058, 242.455297)"><g><path d="M 2.15625 0 L 2.15625 -14.28125 L 3.84375 -14.28125 L 3.84375 -8.03125 L 4.140625 -8.03125 L 10 -14.28125 L 11.84375 -14.28125 L 11.84375 -14.03125 L 5.65625 -7.359375 L 12.328125 -0.25 L 12.328125 0 L 10.40625 0 L 4.140625 -6.578125 L 3.84375 -6.578125 L 3.84375 0 Z M 2.15625 0 "/></g></g></g><g fill="#d6cc77" fill-opacity="1"><g transform="translate(126.074793, 242.455297)"><g><path d="M 12.859375 0 L 11.0625 0 L 9.734375 -3.921875 L 3.65625 -3.921875 L 2.328125 0 L 0.5625 0 L 5.546875 -14.28125 L 7.875 -14.28125 Z M 6.578125 -12.546875 L 4.125 -5.328125 L 9.265625 -5.328125 L 6.8125 -12.546875 Z M 6.578125 -12.546875 "/></g></g></g><g fill="#d6cc77" fill-opacity="1"><g transform="translate(139.487519, 242.455297)"><g><path d="M 2.15625 0 L 2.15625 -14.28125 L 7.34375 -14.28125 C 8.300781 -14.28125 9.101562 -14.117188 9.75 -13.796875 C 10.40625 -13.484375 10.894531 -13.039062 11.21875 -12.46875 C 11.539062 -11.894531 11.703125 -11.210938 11.703125 -10.421875 C 11.703125 -9.535156 11.476562 -8.800781 11.03125 -8.21875 C 10.59375 -7.644531 9.90625 -7.21875 8.96875 -6.9375 L 8.96875 -6.734375 C 9.4375 -6.546875 9.816406 -6.253906 10.109375 -5.859375 C 10.398438 -5.472656 10.671875 -4.894531 10.921875 -4.125 L 12.234375 0 L 10.515625 0 L 9.078125 -4.359375 C 8.910156 -4.878906 8.71875 -5.285156 8.5 -5.578125 C 8.28125 -5.867188 8 -6.078125 7.65625 -6.203125 C 7.320312 -6.335938 6.894531 -6.40625 6.375 -6.40625 L 3.84375 -6.40625 L 3.84375 0 Z M 7.3125 -7.828125 C 8.195312 -7.828125 8.859375 -8.035156 9.296875 -8.453125 C 9.734375 -8.867188 9.953125 -9.5 9.953125 -10.34375 C 9.953125 -11.1875 9.734375 -11.816406 9.296875 -12.234375 C 8.859375 -12.648438 8.195312 -12.859375 7.3125 -12.859375 L 3.84375 -12.859375 L 3.84375 -7.828125 Z M 7.3125 -7.828125 "/></g></g></g><g fill="#d6cc77" fill-opacity="1"><g transform="translate(152.70501, 242.455297)"><g><path d="M 3.84375 -6.734375 L 3.84375 -1.390625 L 11.109375 -1.390625 L 11.109375 0 L 2.15625 0 L 2.15625 -14.28125 L 10.953125 -14.28125 L 10.953125 -12.890625 L 3.84375 -12.890625 L 3.84375 -8.109375 L 10.125 -8.109375 L 10.125 -6.734375 Z M 3.84375 -6.734375 "/></g></g></g><g fill="#d6cc77" fill-opacity="1"><g transform="translate(164.760844, 242.455297)"><g><path d="M 3.84375 -6.734375 L 3.84375 -1.390625 L 11.109375 -1.390625 L 11.109375 0 L 2.15625 0 L 2.15625 -14.28125 L 10.953125 -14.28125 L 10.953125 -12.890625 L 3.84375 -12.890625 L 3.84375 -8.109375 L 10.125 -8.109375 L 10.125 -6.734375 Z M 3.84375 -6.734375 "/></g></g></g><g fill="#d6cc77" fill-opacity="1"><g transform="translate(176.816679, 242.455297)"><g><path d="M 3.71875 0 L 2.15625 0 L 2.15625 -14.28125 L 4.65625 -14.28125 L 8.96875 -2.1875 L 9.1875 -2.1875 L 13.5 -14.28125 L 15.90625 -14.28125 L 15.90625 0 L 14.3125 0 L 14.3125 -11.65625 L 14.078125 -11.6875 L 9.859375 0 L 8.1875 0 L 3.953125 -11.6875 L 3.71875 -11.65625 Z M 3.71875 0 "/></g></g></g><g fill="#d6cc77" fill-opacity="1"><g transform="translate(194.885789, 242.455297)"><g/></g></g><g fill="#d6cc77" fill-opacity="1"><g transform="translate(199.786218, 242.455297)"><g><path d="M 6.234375 0.203125 C 5.335938 0.203125 4.53125 0.0820312 3.8125 -0.15625 C 3.101562 -0.40625 2.507812 -0.726562 2.03125 -1.125 C 1.5625 -1.519531 1.210938 -1.957031 0.984375 -2.4375 L 1.890625 -3.546875 L 2.140625 -3.546875 C 3.023438 -2.054688 4.390625 -1.3125 6.234375 -1.3125 C 7.316406 -1.3125 8.117188 -1.535156 8.640625 -1.984375 C 9.160156 -2.429688 9.421875 -3.054688 9.421875 -3.859375 C 9.421875 -4.328125 9.332031 -4.722656 9.15625 -5.046875 C 8.988281 -5.367188 8.707031 -5.644531 8.3125 -5.875 C 7.914062 -6.113281 7.375 -6.316406 6.6875 -6.484375 L 5.015625 -6.890625 C 3.773438 -7.191406 2.859375 -7.671875 2.265625 -8.328125 C 1.679688 -8.984375 1.390625 -9.8125 1.390625 -10.8125 C 1.390625 -11.519531 1.570312 -12.148438 1.9375 -12.703125 C 2.300781 -13.265625 2.832031 -13.703125 3.53125 -14.015625 C 4.238281 -14.328125 5.082031 -14.484375 6.0625 -14.484375 C 7.132812 -14.484375 8.039062 -14.332031 8.78125 -14.03125 C 9.519531 -13.726562 10.109375 -13.273438 10.546875 -12.671875 L 9.734375 -11.5625 L 9.484375 -11.5625 C 9.078125 -12.0625 8.59375 -12.425781 8.03125 -12.65625 C 7.46875 -12.894531 6.8125 -13.015625 6.0625 -13.015625 C 5.070312 -13.015625 4.320312 -12.820312 3.8125 -12.4375 C 3.3125 -12.050781 3.0625 -11.519531 3.0625 -10.84375 C 3.0625 -10.207031 3.242188 -9.695312 3.609375 -9.3125 C 3.984375 -8.925781 4.609375 -8.628906 5.484375 -8.421875 L 7.203125 -8.015625 C 8.585938 -7.691406 9.585938 -7.191406 10.203125 -6.515625 C 10.828125 -5.847656 11.140625 -4.988281 11.140625 -3.9375 C 11.140625 -3.125 10.957031 -2.40625 10.59375 -1.78125 C 10.238281 -1.164062 9.691406 -0.679688 8.953125 -0.328125 C 8.222656 0.0234375 7.316406 0.203125 6.234375 0.203125 Z M 6.234375 0.203125 "/></g></g></g><g fill="#d6cc77" fill-opacity="1"><g transform="translate(212.017765, 242.455297)"><g><path d="M 12.859375 0 L 11.0625 0 L 9.734375 -3.921875 L 3.65625 -3.921875 L 2.328125 0 L 0.5625 0 L 5.546875 -14.28125 L 7.875 -14.28125 Z M 6.578125 -12.546875 L 4.125 -5.328125 L 9.265625 -5.328125 L 6.8125 -12.546875 Z M 6.578125 -12.546875 "/></g></g></g><g fill="#d6cc77" fill-opacity="1"><g transform="translate(225.430491, 242.455297)"><g><path d="M 12.859375 0 L 11.0625 0 L 9.734375 -3.921875 L 3.65625 -3.921875 L 2.328125 0 L 0.5625 0 L 5.546875 -14.28125 L 7.875 -14.28125 Z M 6.578125 -12.546875 L 4.125 -5.328125 L 9.265625 -5.328125 L 6.8125 -12.546875 Z M 6.578125 -12.546875 "/></g></g></g><g fill="#d6cc77" fill-opacity="1"><g transform="translate(238.843217, 242.455297)"><g><path d="M 6.78125 -14.28125 C 8.226562 -14.28125 9.46875 -14.019531 10.5 -13.5 C 11.539062 -12.976562 12.34375 -12.1875 12.90625 -11.125 C 13.46875 -10.070312 13.75 -8.742188 13.75 -7.140625 C 13.75 -5.535156 13.46875 -4.203125 12.90625 -3.140625 C 12.34375 -2.078125 11.539062 -1.285156 10.5 -0.765625 C 9.46875 -0.253906 8.226562 0 6.78125 0 L 2.15625 0 L 2.15625 -14.28125 Z M 6.609375 -1.421875 C 7.804688 -1.421875 8.796875 -1.609375 9.578125 -1.984375 C 10.359375 -2.359375 10.945312 -2.960938 11.34375 -3.796875 C 11.75 -4.640625 11.953125 -5.753906 11.953125 -7.140625 C 11.953125 -8.535156 11.75 -9.648438 11.34375 -10.484375 C 10.945312 -11.316406 10.359375 -11.921875 9.578125 -12.296875 C 8.796875 -12.671875 7.804688 -12.859375 6.609375 -12.859375 L 3.84375 -12.859375 L 3.84375 -1.421875 Z M 6.609375 -1.421875 "/></g></g></g></svg>